<?xml version="1.0" encoding="utf-8"?>
<!-- Generator: Adobe Illustrator 27.5.0, SVG Export Plug-In . SVG Version: 6.00 Build 0)  -->
<svg version="1.1" xmlns="http://www.w3.org/2000/svg" xmlns:xlink="http://www.w3.org/1999/xlink" x="0px" y="0px"
	 viewBox="0 0 3710 3710" style="enable-background:new 0 0 3710 3710;" xml:space="preserve">
<g id="Background">
	<g>
		<g>
			<rect style="fill:#FFFFFF;" width="3710" height="3710"/>
		</g>
	</g>
</g>
<g id="Illustration">
	<g>
		<path style="fill:#F4F7FA;" d="M1046.938,596.492c-96.33,140.423,16.619,368.081-126.318,473.691
			c-139.138,102.803-310.065-65.705-441.193,22.787c-194.522,131.273-158.999,731.953,125.402,1105.167
			c85.529,112.238,156.994,155.909,188.645,282.845c67.964,272.565-170.897,434.703-125.442,569.509
			c102.349,303.533,1676.394,558.234,2307.971-353.985c294.972-426.044,339.107-1041.255,75.558-1508.511
			C2575.334,343.671,1263.084,281.409,1046.938,596.492z"/>
		<g>
			<g>
				
					<linearGradient id="SVGID_1_" gradientUnits="userSpaceOnUse" x1="-179.4673" y1="1334.3859" x2="475.6989" y2="5522.7813" gradientTransform="matrix(0.6533 -0.7571 0.7571 0.6533 -617.9271 612.596)">
					<stop  offset="0" style="stop-color:#FF9085"/>
					<stop  offset="1" style="stop-color:#FB6FBB"/>
				</linearGradient>
				<path style="fill:url(#SVGID_1_);" d="M1931.543,2992.131c22.511-8.266,64.197-46.092,70.998-60.432
					c45.262-95.436,141.611-268.613,110.519-375.857c-5.31-18.316-92.189-16.706-107.686-31.104
					c-55.64-12.417-75.713-13.274-122.81-51.065c-139.042-111.569,49.488-423.184-257.823-447.866
					c-225.101-18.078-386.157,94.634-437.651-236.745c-51.494-331.379-445.226-867.116-738.03-561.297
					c-168.042,175.511,95.672,407.358,40.423,635.098c-52.5,216.412,66.295,357.778,299.379,427.558
					c233.084,69.78,143.108,184.56,125.044,382.99c-21.7,238.358,328.703,200.132,488.968,168.685
					C1531.935,2816.77,1877.648,2839.357,1931.543,2992.131z"/>
				<g style="opacity:0.5;">
					<defs>
						<path id="SVGID_00000041978291572299903730000007170002547175987890_" style="opacity:0.5;" d="M2161.927,2509.18
							c-13.816,164.26-21.108,331.978-34.127,497.47c-89.548,28.782-195.584,60.458-242.073-47.039
							c-64.633-149.454-349.606-146.134-478.243-119.273c-159.214,33.246-510.032,73.123-489.785-165.185
							c16.856-198.39,105.906-313.947-127.625-382.108c-233.532-68.161-353.243-208.747-302.252-425.524
							c53.66-228.125-211.53-458.055-44.72-634.802c290.66-307.972,688.244,225.589,741.734,556.177
							c53.489,330.588,214.877,218.578,439.109,233.568c306.125,20.463,124.676,341.154,259.536,443.672
							C1989.201,2546.505,2049.865,2513.093,2161.927,2509.18z"/>
					</defs>
					<clipPath id="SVGID_00000022551042026342756810000011959965678567177379_">
						<use xlink:href="#SVGID_00000041978291572299903730000007170002547175987890_"  style="overflow:visible;"/>
					</clipPath>
					<g style="clip-path:url(#SVGID_00000022551042026342756810000011959965678567177379_);">
						<path style="fill:#FCFDFE;" d="M2061.362,2747.836l1.128-4.972C1296.549,2568.888,716.829,1959.33,511.74,1112.298
							l-4.959,1.198c97.199,401.433,286.159,763.1,546.452,1045.901C1326.882,2456.712,1675.487,2660.189,2061.362,2747.836z"/>
						<path style="fill:#FCFDFE;" d="M898.003,2773.364c183.472-111.766,515.48-191.419,740.101-177.553l0.313-5.089
							c-225.505-13.918-558.841,66.062-743.066,178.286L898.003,2773.364z"/>
						<path style="fill:#FCFDFE;" d="M1911.396,2711.963l2.461-4.467c-102.425-56.51-172.347-162.631-207.821-315.412
							c-26.013-112.026-33.243-246.064-21.489-398.401l-5.085-0.39c-11.792,152.852-4.525,287.413,21.605,399.943
							C1736.883,2547.487,1807.647,2654.722,1911.396,2711.963z"/>
						<path style="fill:#FCFDFE;" d="M1017.848,2117.822l2.69-4.333c-187.587-116.449-419.485-105.028-580.994-74.944l0.936,5.016
							C601.1,2013.639,831.652,2002.235,1017.848,2117.822z"/>
						<path style="fill:#FCFDFE;" d="M729.424,1702.772l4.869-1.52c-74.095-237.442,15.026-482.851,74.743-608.002l-4.603-2.197
							C744.393,1216.88,654.81,1463.667,729.424,1702.772z"/>
					</g>
				</g>
			</g>
		</g>
		<g>
			<g>
				<defs>
					<path id="SVGID_00000083788051630125188400000002118513533080415648_" d="M1472.538,3048.93
						c116.454-9.066,232.972-20.79,349.461-35.17c1.755,1.819,56.693-246.204-53.354-385.777
						c-217.976-270.716-43.784-488.376,10.709-620.683c85.45-185.979,64.228-420.582-149.041-391.504
						c-207.437,23.416-209.656-400.495-152.061-723.009c41.001-156.083-95.086-358.179-240.992-412.22
						c-148.688-58.986-307.192,30.081-375.251,342.133c-95.352,360.174,155.954,598.504,242.067,788.245
						c84.76,186.279-150.953,316.176,19.875,487.776c143.174,151.886,328.86,266.735,246.233,439.563
						C1285.763,2708.971,1293.272,2853.753,1472.538,3048.93z"/>
				</defs>
				<clipPath id="SVGID_00000087380903954592435780000014607122707480009091_">
					<use xlink:href="#SVGID_00000083788051630125188400000002118513533080415648_"  style="overflow:visible;"/>
				</clipPath>
				
					<linearGradient id="SVGID_00000023277696894897463590000006022674338715087753_" gradientUnits="userSpaceOnUse" x1="5509.8018" y1="2329.9111" x2="4679.999" y2="4688.2993" gradientTransform="matrix(0.8993 -0.4372 0.4372 0.8993 -4740.2622 845.4074)">
					<stop  offset="0" style="stop-color:#FFC444"/>
					<stop  offset="0.9964" style="stop-color:#F36F56"/>
				</linearGradient>
				
					<path style="clip-path:url(#SVGID_00000087380903954592435780000014607122707480009091_);fill:url(#SVGID_00000023277696894897463590000006022674338715087753_);" d="
					M1472.538,3048.93c116.454-9.066,232.972-20.79,349.461-35.17c1.755,1.819,56.693-246.204-53.354-385.777
					c-217.976-270.716-43.784-488.376,10.709-620.683c84.713-185.888,61.16-395.069-132.817-411.41
					c-214.854-22.341-229.511-381.495-168.286-703.103c41.001-156.083-95.086-358.179-240.992-412.22
					c-148.688-58.986-307.192,30.081-375.251,342.133c-95.352,360.174,155.954,598.504,242.067,788.245
					c84.76,186.279-150.953,316.176,19.875,487.776c143.174,151.886,328.86,266.735,246.233,439.563
					C1285.763,2708.971,1293.272,2853.753,1472.538,3048.93z"/>
				<g style="opacity:0.5;clip-path:url(#SVGID_00000087380903954592435780000014607122707480009091_);">
					<path style="fill:#FFFFFF;" d="M1631.515,3074.705c0.185-2.224-73.874-537.124-228.825-1063.532
						c-20.538-84.84-43.312-170.596-65.331-253.528c-122.64-461.844-238.478-898.076-49.751-1361.434l-6.443-2.626
						c-189.605,465.52-73.477,902.844,49.469,1365.847c22.011,82.894,44.774,168.613,65.338,253.543
						c155.785,529.258,228.477,1058.155,228.598,1061.423L1631.515,3074.705z"/>
					<path style="fill:#FFFFFF;" d="M1226.22,1329.83l5.475-4.293c-118.726-151.561-259.904-365.094-335.751-479.809
						c-61.385-92.843-61.683-92.834-65.259-92.508l0.299,3.464l-1.822,2.889c3.478,3.023,28.855,41.403,60.98,89.992
						C966.043,964.362,1107.319,1178.045,1226.22,1329.83z"/>
					<path style="fill:#FFFFFF;" d="M1202.767,1130.864c37.601-161.041,111.863-263.719,167.541-321.496
						c60.649-62.936,115.612-90.026,122.203-90.747l-0.295-2.684l2.679-3.46c-1.649-1.279-3.659-0.915-6.794,0.197
						c-44.882,15.957-225.991,133.426-292.109,416.606L1202.767,1130.864z"/>
					<path style="fill:#FFFFFF;" d="M1485.886,2354.628l6.951-0.349c-16.491-328.428,225.557-617.244,330.39-726.174
						c5.632-5.851,7.446-7.752,8.131-8.764l-5.769-3.89l2.884,1.945l-2.869-1.964c-0.51,0.705-3.7,4.015-7.388,7.85
						c-75.604,78.558-140.442,162.14-192.713,248.421C1525.093,2037.449,1478.119,2199.928,1485.886,2354.628z"/>
					<path style="fill:#FFFFFF;" d="M1034.743,1926.627l-0.006-3.433l-1.321,3.184l-2.14-3.568l2.805-3.071
						c0.009-0.003,0.025-0.004,0.044-0.005c4.763-0.2,294.295,35.804,417.06,268.243l-6.152,3.249
						C1323.494,1961.109,1037.51,1926.743,1034.743,1926.627z M1034.75,1923.159l1.33-3.206L1034.75,1923.159z"/>
					<path style="fill:#FFFFFF;" d="M1618.167,2987.227c2.092-66.27,33.47-177.375,171.053-330.342
						c7.808-8.68,7.808-8.68,7.673-10.489l-6.938,0.524l3.469-0.261l-3.032-1.647c-0.458,0.678-3.186,3.711-6.342,7.222
						c-138.991,154.531-170.709,267.343-172.839,334.771L1618.167,2987.227z"/>
					<path style="fill:#FFFFFF;" d="M1590.509,2860.397l6.797-1.477c-26.108-120.268-184.765-217.781-277.014-265.202
						c-2.926-1.504-4.809-2.466-5.478-2.87l-3.593,5.957c0.717,0.434,2.742,1.48,5.892,3.1
						C1408.27,2646.767,1565.005,2742.922,1590.509,2860.397z"/>
				</g>
			</g>
		</g>
		<g>
			<g>
				<path style="fill:#26264F;" d="M3270.927,3104.706L508.74,3081.161v69.665c0,18.908,12.048,34.986,28.364,37.851
					l781.064,137.182c9.27,1.628,18.669,2.06,28.023,1.287l1894.719-156.409c16.915-1.396,30.017-17.524,30.017-36.951V3104.706z"/>
				<g>
					<path style="fill:#26264F;" d="M2268.54,2993.066L537.303,3120.509c-30.979,2.28-56.168-21.952-56.168-54.13V1777.176
						c0-32.179,25.189-58.265,56.168-58.265H2268.54c25.522,0,46.158,23.581,46.158,52.671v1165.415
						C2314.698,2966.085,2294.063,2991.186,2268.54,2993.066z"/>
					
						<linearGradient id="SVGID_00000031912943857135872100000008779444051531980473_" gradientUnits="userSpaceOnUse" x1="508.7402" y1="2419.7842" x2="2342.3027" y2="2419.7842">
						<stop  offset="0" style="stop-color:#444B8C"/>
						<stop  offset="0.9964" style="stop-color:#26264F"/>
					</linearGradient>
					<path style="fill:url(#SVGID_00000031912943857135872100000008779444051531980473_);" d="M2296.145,2993.066L564.908,3120.509
						c-30.98,2.28-56.168-21.952-56.168-54.13V1777.176c0-32.179,25.188-58.265,56.168-58.265h1731.236
						c25.523,0,46.158,23.581,46.158,52.671v1165.415C2342.303,2966.085,2321.668,2991.186,2296.145,2993.066z"/>
					<path style="fill:#EFF2F6;" d="M2242.212,2910.902L629.746,3021.603c-25.21,1.73-45.697-18.158-45.697-44.428V1848.476
						c0-26.27,20.487-47.654,45.697-47.763l1612.466-6.951c21.054-0.091,38.084,19.232,38.084,43.16v1028.042
						C2280.296,2888.89,2263.266,2909.457,2242.212,2910.902z"/>
					<path style="fill:#FFFFFF;" d="M1491.669,1754.173c0,11.979-8.91,21.718-19.914,21.753
						c-11.017,0.035-19.957-9.669-19.957-21.675c0-12.006,8.94-21.745,19.957-21.754
						C1482.759,1732.489,1491.669,1742.194,1491.669,1754.173z"/>
					<path style="opacity:0.48;fill:#FFFFFF;" d="M564.902,3120.509l1722.478-126.799l8.765-0.645
						c11.71-0.862,22.358-6.651,30.492-15.432c-123.952-6.783-200.94-50.771-250.603-96.222
						c-99.734-91.276-82.435-181.287-189.987-241.299c-134.146-74.854-239.624,19.995-341.419-73.587
						c-61.713-56.736-31.415-99.044-107.354-183.828c-84.107-93.906-138.865-62.34-223.392-146.856
						c-106.877-106.865-53.424-190.008-145.486-266.734c-111.684-93.08-232.13-6.929-338.445-96.195
						c-45.855-38.5-71.016-94.474-84.154-154.002h-80.888c-30.98,0-56.168,26.087-56.168,58.265v1289.203
						C508.74,3098.555,533.924,3122.785,564.902,3120.509z"/>
				</g>
				
					<linearGradient id="SVGID_00000067941497944389843510000004846806329801225914_" gradientUnits="userSpaceOnUse" x1="508.7402" y1="3124.7944" x2="3270.9272" y2="3124.7944">
					<stop  offset="0" style="stop-color:#444B8C"/>
					<stop  offset="0.9964" style="stop-color:#26264F"/>
				</linearGradient>
				<path style="fill:url(#SVGID_00000067941497944389843510000004846806329801225914_);" d="M2365.147,2985.996L508.74,3120.143
					l809.428,142.164c9.27,1.628,18.669,2.06,28.023,1.288l1924.736-158.889l-876.25-117.798
					C2384.878,2985.59,2374.995,2985.285,2365.147,2985.996z"/>
				<polygon style="fill:#26264F;" points="779.619,3121.296 2325.133,3007.952 2803.456,3071.737 1271.256,3192.898 				"/>
			</g>
			<g>
				<defs>
					<path id="SVGID_00000142897011539958838180000001407848817507436181_" d="M2242.212,2910.902L656.263,3021.903
						c-27.65,1.73-72.214-21.968-72.214-48.237V1844.967c0-26.27,22.469-47.654,44.194-911.241l1819.594-11.425
						c456.147-52.958,823.092,321.241,537.047,808.475l-37.316,1028.042C2444.435,2885.381,2265.303,2909.457,2242.212,2910.902z"/>
				</defs>
				<clipPath id="SVGID_00000104699144244124418550000013358270813642655367_">
					<use xlink:href="#SVGID_00000142897011539958838180000001407848817507436181_"  style="overflow:visible;"/>
				</clipPath>
				<g style="clip-path:url(#SVGID_00000104699144244124418550000013358270813642655367_);">
					
						<linearGradient id="SVGID_00000144311419363670751730000005462517154182778005_" gradientUnits="userSpaceOnUse" x1="2845.9905" y1="1182.4735" x2="2477.584" y2="2171.9102">
						<stop  offset="0" style="stop-color:#AB316D"/>
						<stop  offset="1" style="stop-color:#792D3D"/>
					</linearGradient>
					<path style="fill:url(#SVGID_00000144311419363670751730000005462517154182778005_);" d="M2681.165,1530.034
						c16.175-48.694,9.685-75.379,0-90.909c-13.506-21.656-44.448-39.614-101.549-83.333c-3.736-2.86-10.191-7.968-9.375-10.773
						c2.022-6.942,33.103-3.351,60.15,10.773c39.201,20.471,47.366,22.051,70.669,29.299c41.184,12.811,77.394,2.112,132.428-14.147
						c22.696-6.705,54.507-18.058,90.669-37.879c0,0,39.894-18.939,50.774,0l-58.028,30.303c0,0,50.775-22.727,79.788-7.576
						l-101.549,45.454c0,0,76.162-22.727,79.788-7.576c-49.498,36.878-93.161,49.467-126.937,53.03
						c-51.981,5.484-91.11-9.291-105.176,11.363c-11.354,16.674,0.436,46.433,14.507,71.97H2681.165z"/>
					
						<linearGradient id="SVGID_00000055666086755089333910000014046465832367739526_" gradientUnits="userSpaceOnUse" x1="2445.7229" y1="1952.9462" x2="1936.8258" y2="3028.1177">
						<stop  offset="0" style="stop-color:#AA80F9"/>
						<stop  offset="0.9964" style="stop-color:#6165D7"/>
					</linearGradient>
					<path style="fill:url(#SVGID_00000055666086755089333910000014046465832367739526_);" d="M1999.335,1886.094
						c45.243-70.787,100.806-113.197,141.033-138.775c14.523,6.691,36.841,17.868,62.306,34.676
						c73.484,48.502,81.56,83.429,143.923,123.873c33.073,21.449,74.035,48.013,126.624,44.392
						c60.537-4.169,102.025-45.966,119.268-63.337c118.278-119.156,72.007-344.892,66.915-368.252
						c44.73-1.262,89.46-2.526,134.189-3.788c23.529,43.094,153.188,317.877,58.028,594.696
						c-136.29,396.464-690.711,399.883-858.332,217.366C1893.467,2218.25,1894.056,2050.813,1999.335,1886.094z"/>
					
						<linearGradient id="SVGID_00000083773205614971029400000001545968534895849861_" gradientUnits="userSpaceOnUse" x1="-2454.8762" y1="2744.438" x2="-2964.9624" y2="3822.1218" gradientTransform="matrix(-1 0 0 1 -658.8848 0)">
						<stop  offset="0" style="stop-color:#AA80F9"/>
						<stop  offset="0.9964" style="stop-color:#6165D7"/>
					</linearGradient>
					<path style="fill:url(#SVGID_00000083773205614971029400000001545968534895849861_);" d="M1138.945,3069.35
						c-15.116-22.42-41.769-68.84-62.255-129.259c-55.406-163.402-25.309-310.033-17.846-351.573
						c25.067-139.516,28.906-396.428-54.205-908.201c148.422-39.128,371.615-78.302,640.493-52.347
						c203.839,19.676,372.078,70.812,495.235,119.349c3.225,235.394-15.039,422.098-32.046,548.057
						c-27.256,201.868-53.795,266.3-56.902,438.903c-4.676,259.75,52.143,296.345,8.835,376.907
						C1935.783,3342.727,1312.52,3326.79,1138.945,3069.35z"/>
					
						<linearGradient id="SVGID_00000036966969574840564940000005413979834477255559_" gradientUnits="userSpaceOnUse" x1="1553.403" y1="1809.9465" x2="1617.7318" y2="1333.916">
						<stop  offset="0" style="stop-color:#AB316D"/>
						<stop  offset="1" style="stop-color:#792D3D"/>
					</linearGradient>
					<path style="fill:url(#SVGID_00000036966969574840564940000005413979834477255559_);" d="M1555.146,1351.793
						c-7.385,73.23-14.77,146.459-22.154,219.689c-2.001,19.84-17.23,35.388-36.266,37.027
						c-75.357,6.487-150.715,12.974-226.071,19.461l417.913,133.822l191.578-95.42c-58.454-18.918-116.908-37.837-175.362-56.756
						c-15.016-4.86-25.879-18.505-27.713-34.811c-5.086-45.22-10.173-90.44-15.259-135.661L1555.146,1351.793z"/>
					
						<linearGradient id="SVGID_00000151530126028126414470000010743040973313415320_" gradientUnits="userSpaceOnUse" x1="1668.1426" y1="1437.2986" x2="1593.2878" y2="1110.9783">
						<stop  offset="0" style="stop-color:#AB316D"/>
						<stop  offset="1" style="stop-color:#792D3D"/>
					</linearGradient>
					<path style="fill:url(#SVGID_00000151530126028126414470000010743040973313415320_);" d="M1514.349,1317.722
						c46.068,110.413,161.346,201.795,220.914,174.685c59.568-27.11,53.229-164.462,7.163-274.876
						c-46.068-110.414-134.296-152.517-193.864-125.406C1488.995,1119.236,1468.282,1207.307,1514.349,1317.722z"/>
					
						<linearGradient id="SVGID_00000173860521183682155280000007392704096147792311_" gradientUnits="userSpaceOnUse" x1="-2117.0547" y1="877.7476" x2="-2377.9863" y2="1338.7266" gradientTransform="matrix(-1 0 0 1 -658.8848 0)">
						<stop  offset="0" style="stop-color:#444B8C"/>
						<stop  offset="0.9964" style="stop-color:#26264F"/>
					</linearGradient>
					<path style="fill:url(#SVGID_00000173860521183682155280000007392704096147792311_);" d="M1591.817,1307.712
						c-5.809,4.547-28.497-27.941-41.073-22.14c-10.608,4.893-13.48,36.787-0.62,58.661c10.946,18.62,25.523,16.76,29.768,31.284
						c6.982,23.88-23.467,59.55-34.862,55.351c-7.309-2.694-1.245-19.75-8.348-39.231c-13.962-38.289-59.804-33.882-97.231-63.169
						c-58.858-46.057-74.888-158.212-39.796-200.199c13.338-15.958,28.293-14.881,46.42-40.578
						c19.626-27.821,11.055-41.786,26.153-59.673c25.621-30.35,81.859-27.522,117.399-16.306
						c44.714,14.112,47.957,38.753,77.883,36.936c35.44-2.151,40.552-37.298,82.814-43.759c2.434-0.373,41.884-5.764,71.595,21.035
						c38.582,34.803,29.135,95.387,27.797,103.975c-8.56,54.898-51.457,104.401-98.909,115.542
						c-9.989,2.345-7.968,0.122-108.471-2.411c-33.204-0.837-53.273-1.09-59.955,11.11
						C1572.736,1271.753,1597.663,1303.136,1591.817,1307.712z"/>
					
						<linearGradient id="SVGID_00000064324708648226602110000002496698225018535564_" gradientUnits="userSpaceOnUse" x1="-2142.3096" y1="3510.9839" x2="-1118.1472" y2="839.2568" gradientTransform="matrix(-1 0 0 1 -658.8848 0)">
						<stop  offset="0" style="stop-color:#AA80F9"/>
						<stop  offset="0.9964" style="stop-color:#6165D7"/>
					</linearGradient>
					<path style="opacity:0.3;fill:url(#SVGID_00000064324708648226602110000002496698225018535564_);" d="M1058.846,2087.166
						c53.338,25.274,82.087,57.297,98.544,86.82c62.752,112.574-33.775,222.931,35.532,363.683
						c47.698,96.865,110.92,80.149,142.128,170.708c40.035,116.174-47.089,192.777-42.639,311.729
						c2.245,59.979,27.953,134.903,115.119,220.517c-114.409-32.966-213.858-90.102-268.586-171.273
						c-15.116-22.42-41.769-68.84-62.255-129.259c-55.406-163.402-25.309-310.033-17.846-351.573
						C1076.134,2492.29,1083.319,2340.196,1058.846,2087.166z"/>
					
						<linearGradient id="SVGID_00000039826593225978587380000003905076567692408238_" gradientUnits="userSpaceOnUse" x1="-1900.6136" y1="3021.6052" x2="-2415.4536" y2="4109.332" gradientTransform="matrix(-1 0 0 1 -658.8848 0)">
						<stop  offset="0" style="stop-color:#AA80F9"/>
						<stop  offset="0.9964" style="stop-color:#6165D7"/>
					</linearGradient>
					<path style="fill:url(#SVGID_00000039826593225978587380000003905076567692408238_);" d="M823.825,3163.2
						c-186.104-93.97-190.888-426.766-193.443-598.229c-2.009-134.797-10.448-700.998,302.898-857.033
						c54.688-27.233,106.742-35.779,144.793-38.363c36.066,23.091,126.265,88.074,158.339,205.062
						c18.164,66.252,12.601,130.635-11.511,217.705c-62.393,225.304-155.576,265.211-212.808,414.025
						c-116.427,302.734,96.083,572.957-16.023,665.199C938.053,3219.303,833.379,3168.023,823.825,3163.2z"/>
				</g>
			</g>
		</g>
		<path style="fill:#FFFFFF;" d="M1680.455,1479.692c-80.976,0-111.474-116.034-111.795-117.3c-0.767-3.016,1.055-6.082,4.071-6.849
			c3.009-0.763,6.086,1.057,6.853,4.069c0.323,1.262,33.153,125.99,118.789,106.737c3.042-0.668,6.054,1.229,6.733,4.268
			c0.682,3.034-1.227,6.051-4.264,6.733C1693.719,1478.947,1686.923,1479.692,1680.455,1479.692z"/>
		<path style="fill:#FFFFFF;" d="M1751.956,1461.114c2.22,8.536-8.599,18.736-24.165,22.784
			c-15.565,4.047-29.983,0.409-32.202-8.127c-2.219-8.536,8.599-18.736,24.165-22.784
			C1735.32,1448.939,1749.737,1452.578,1751.956,1461.114z"/>
		<path style="fill:#FFFFFF;" d="M1590.432,1336.539c6.053,23.28-0.828,45.219-15.371,49c-14.542,3.781-31.239-12.026-37.292-35.307
			c-6.053-23.28,0.828-45.218,15.37-49C1567.682,1297.451,1584.378,1313.258,1590.432,1336.539z"/>
		<g>
			
				<linearGradient id="SVGID_00000009556116487873809810000012436098339078010286_" gradientUnits="userSpaceOnUse" x1="144.8379" y1="1341.2227" x2="-351.9763" y2="2109.8777" gradientTransform="matrix(1 0 0 1 2194.9736 0)">
				<stop  offset="0" style="stop-color:#AA80F9"/>
				<stop  offset="0.9964" style="stop-color:#6165D7"/>
			</linearGradient>
			<path style="fill:url(#SVGID_00000009556116487873809810000012436098339078010286_);" d="M2570.303,1627.226l-97.319-71.128
				l0.444-201.282c0.048-21.882-17.05-40.497-38.283-41.603l-457.226-23.799c-23.634-1.23-43.151,16.579-43.482,39.804
				l-3.612,253.707c-0.335,23.514,18.798,42.893,42.622,43.259l405.581,6.234l55.137,0.847l133.771,2.056
				C2572.093,1635.385,2573.742,1629.74,2570.303,1627.226z"/>
			<g>
				<path style="fill:#FFFFFF;" d="M2131.88,1454.191c-0.143,14.625-12.138,26.111-26.834,25.645
					c-14.743-0.468-26.6-12.781-26.438-27.492c0.161-14.701,12.265-26.162,26.99-25.608
					C2120.276,1427.287,2132.024,1439.575,2131.88,1454.191z"/>
				<path style="fill:#FFFFFF;" d="M2221.996,1457.317c-0.113,14.48-11.846,25.856-26.25,25.399
					c-14.45-0.459-26.092-12.646-25.961-27.21c0.131-14.555,11.97-25.905,26.402-25.362
					C2210.572,1430.684,2222.109,1442.846,2221.996,1457.317z"/>
				<path style="fill:#FFFFFF;" d="M2310.331,1460.381c-0.083,14.338-11.564,25.606-25.683,25.157
					c-14.165-0.449-25.599-12.512-25.498-26.933c0.1-14.411,11.683-25.654,25.831-25.122
					C2299.083,1434.014,2310.414,1446.052,2310.331,1460.381z"/>
			</g>
		</g>
		<g>
			<g>
				
					<linearGradient id="SVGID_00000142882304299645852220000000453786105259612047_" gradientUnits="userSpaceOnUse" x1="226.0435" y1="435.6181" x2="623.74" y2="1086.6869" gradientTransform="matrix(1 0 0 1 2194.9736 0)">
					<stop  offset="0" style="stop-color:#FF9085"/>
					<stop  offset="1" style="stop-color:#FB6FBB"/>
				</linearGradient>
				<path style="fill:url(#SVGID_00000142882304299645852220000000453786105259612047_);" d="M3119.927,545.525l-854.756-21.911
					c-67.971-1.742-124.316,50.134-125.527,115.941l-7.797,423.926c-1.22,66.329,53.478,120.151,121.843,120.151h859.551
					c63.546,0,115.316-51.539,115.923-115.057l3.879-406.027C3233.646,599.509,3183.131,547.145,3119.927,545.525z"/>
				
					<linearGradient id="SVGID_00000157303065709364761050000008757340289529906829_" gradientUnits="userSpaceOnUse" x1="-335.2088" y1="756.9907" x2="76.3684" y2="1430.7837" gradientTransform="matrix(1 0 0 1 2194.9736 0)">
					<stop  offset="0" style="stop-color:#FF9085"/>
					<stop  offset="1" style="stop-color:#FB6FBB"/>
				</linearGradient>
				<path style="fill:url(#SVGID_00000157303065709364761050000008757340289529906829_);" d="M2206.824,974.589l-302.083,193.006
					c-7.585,4.846-4.221,16.037,4.82,16.037h426.817L2206.824,974.589z"/>
			</g>
			<g>
				<path style="fill:#FFFFFF;" d="M2439.825,723.361c11.455,0,21.937,1.691,31.446,5.07c9.509,3.38,17.64,8.162,24.401,14.349
					c6.761,6.185,12.031,13.634,15.81,22.338c3.78,8.709,5.671,18.387,5.671,29.042c0,9.166-1.347,17.643-4.04,25.432
					c-2.693,7.792-6.302,15.238-10.825,22.34c-4.526,7.103-9.824,13.977-15.896,20.621c-6.072,6.644-12.432,13.403-19.072,20.277
					l-56.021,57.222c5.5-1.604,10.883-2.836,16.153-3.694c5.267-0.86,10.311-1.29,15.122-1.29h63.752
					c4.581,0,8.22,1.29,10.914,3.867c2.69,2.578,4.037,5.988,4.037,10.225v25.432h-170.462v-14.09c0-2.863,0.6-5.844,1.802-8.937
					c1.203-3.092,3.122-5.955,5.757-8.592l75.44-75.609c6.298-6.414,11.942-12.545,16.924-18.387
					c4.986-5.842,9.166-11.626,12.545-17.356c3.378-5.728,5.955-11.541,7.734-17.441c1.775-5.899,2.662-12.115,2.662-18.646
					c0-5.955-0.86-11.196-2.577-15.723c-1.72-4.525-4.184-8.335-7.388-11.428c-3.211-3.092-7.021-5.412-11.428-6.959
					c-4.413-1.547-9.368-2.32-14.865-2.32c-10.198,0-18.589,2.577-25.175,7.732c-6.589,5.155-11.198,12.089-13.833,20.794
					c-1.261,4.354-3.152,7.473-5.671,9.365c-2.522,1.89-5.729,2.836-9.622,2.836c-1.72,0-3.612-0.173-5.671-0.516l-22.341-3.952
					c1.72-11.914,5.041-22.367,9.968-31.362c4.924-8.991,11.085-16.496,18.473-22.511c7.388-6.014,15.865-10.538,25.432-13.574
					C2418.543,724.881,2428.826,723.361,2439.825,723.361z"/>
				<path style="fill:#FFFFFF;" d="M2697.58,880.938h31.278v24.574c0,2.292-0.747,4.27-2.234,5.928
					c-1.49,1.662-3.67,2.493-6.531,2.493h-22.513v60.659h-37.117v-60.659H2555.64c-2.865,0-5.386-0.886-7.559-2.664
					c-2.179-1.775-3.553-3.978-4.125-6.615l-4.297-21.481l117.713-157.234h40.208V880.938z M2660.463,799.657
					c0-3.665,0.113-7.617,0.346-11.856c0.226-4.237,0.627-8.649,1.203-13.232l-77.156,106.368h75.608V799.657z"/>
				<path style="fill:#FFFFFF;" d="M2772.499,975.107c-1.031,2.633-2.351,4.924-3.954,6.874c-1.607,1.946-3.437,3.579-5.5,4.897
					c-2.059,1.316-4.239,2.32-6.528,3.008c-2.296,0.687-4.527,1.03-6.702,1.03h-17.873l100.354-256.728
					c1.95-4.813,4.753-8.507,8.423-11.083c3.663-2.578,8.076-3.867,13.23-3.867h18.044L2772.499,975.107z"/>
				<path style="fill:#FFFFFF;" d="M3056.374,726.111v18.387c0,5.498-0.6,9.939-1.802,13.317c-1.203,3.38-2.378,6.216-3.523,8.506
					l-93.998,193.835c-1.949,4.011-4.698,7.419-8.248,10.225c-3.553,2.808-8.364,4.21-14.433,4.21h-30.76l96.229-189.884
					c4.009-7.789,8.477-14.491,13.405-20.104h-118.913c-2.638,0-4.927-0.973-6.874-2.923c-1.95-1.946-2.923-4.237-2.923-6.872
					v-28.698H3056.374z"/>
			</g>
		</g>
	</g>
</g>
</svg>
